<svg xmlns="http://www.w3.org/2000/svg" width="245.904" height="286.888" viewBox="0 0 245.904 286.888">
  <g id="Group_2767" data-name="Group 2767" transform="translate(-3038.244 -81.619)">
    <g id="Group_2766" data-name="Group 2766" transform="translate(3038.244 81.619)">
      <g id="login" transform="translate(0)">
        <path id="Path_2203" data-name="Path 2203" d="M113.084,139.454a5.122,5.122,0,1,0,7.244,7.244L181.8,85.227a5.073,5.073,0,0,0,1.112-1.67,5.128,5.128,0,0,0,0-3.914,5.231,5.231,0,0,0-1.112-1.675L120.328,16.5a5.122,5.122,0,0,0-7.244,7.244l52.731,52.731H9.123a5.123,5.123,0,1,0,0,10.246H165.815Z" transform="translate(-4 61.844)" fill="#fff"/>
        <path id="Path_2204" data-name="Path 2204" d="M207.674,0H18.123A5.118,5.118,0,0,0,13,5.123V112.706a5.123,5.123,0,1,0,10.246,0V10.246h179.3v266.4H23.246V174.182a5.123,5.123,0,1,0-10.246,0V281.765a5.118,5.118,0,0,0,5.123,5.123H207.674a5.118,5.118,0,0,0,5.123-5.123V5.123A5.118,5.118,0,0,0,207.674,0Z" transform="translate(33.107)" fill="#fff"/>
      </g>
    </g>
  </g>
</svg>
